# xmcd
#
# Track frame offsets: 
#        150
#        13230
#        25723
#        36620
#        53520
#        65010
#        81195
#        92075
#        103830
#        118598
#        129483
#
# Disc length: 1894 seconds
#
# Revision: 3
# Processed by: cddbd v1.5.2PL0 Copyright (c) Steve Scherf et al.
# Submitted via: ExactAudioCopyFreeDBPlugin 1.0
#
DISCID=9207640b
DTITLE=Lynn Anderson - Rose Garden
DYEAR=1994
DGENRE=Country
TTITLE0=Rose Garden
TTITLE1=Stand By Your Man
TTITLE2=Heaven's Just A Sin Away
TTITLE3=Blue Bayou
TTITLE4=Listen To A Country Song
TTITLE5=Devil Went Down To Georgia
TTITLE6=Faithless Love
TTITLE7=Rodeo Cowboy
TTITLE8=Gone At Last
TTITLE9=Someday Soon
TTITLE10=Top Of The World
EXTD=
EXTT0=
EXTT1=
EXTT2=
EXTT3=
EXTT4=
EXTT5=
EXTT6=
EXTT7=
EXTT8=
EXTT9=
EXTT10=
PLAYORDER=
